<?xml version="1.0" encoding="UTF-8"?>
<!DOCTYPE svg PUBLIC "-//W3C//DTD SVG 1.1//EN" "http://www.w3.org/Graphics/SVG/1.1/DTD/svg11.dtd">
<!-- Creator: CorelDRAW -->
<svg xmlns="http://www.w3.org/2000/svg" xml:space="preserve" width="2048px" height="2048px" style="shape-rendering:geometricPrecision; text-rendering:geometricPrecision; image-rendering:optimizeQuality; fill-rule:evenodd; clip-rule:evenodd"
viewBox="0 0 2048 2048"
 xmlns:xlink="http://www.w3.org/1999/xlink">
 <defs>
  <style type="text/css">
   <![CDATA[
    .fil2 {fill:none}
    .fil4 {fill:#00ACC1}
    .fil1 {fill:#43A047}
    .fil0 {fill:#81C784}
    .fil3 {fill:#B2EBF2}
   ]]>
  </style>
   <clipPath id="id0">
    <path d="M1024 -0.0011811c565.539,0 1024,458.462 1024,1024 0,565.539 -458.462,1024 -1024,1024 -565.539,0 -1024,-458.462 -1024,-1024 0,-565.539 458.462,-1024 1024,-1024z"/>
   </clipPath>
 </defs>
 <g id="Layer_x0020_1">
  <metadata id="CorelCorpID_0Corel-Layer"/>
  <path class="fil0" d="M1024 -0.0011811c565.539,0 1024,458.462 1024,1024 0,565.539 -458.462,1024 -1024,1024 -565.539,0 -1024,-458.462 -1024,-1024 0,-565.539 458.462,-1024 1024,-1024z"/>
  <g style="clip-path:url(#id0)">
   <g id="_466482944">
    <g>
     <polygon id="_3968167361" class="fil1" points="1443.93,648.63 2579.81,1784.51 2579.81,2673.22 2579.75,2675.61 2579.57,2677.97 2579.27,2680.3 2578.86,2682.59 2578.34,2684.84 2577.7,2687.05 2576.97,2689.22 2576.13,2691.34 2575.19,2693.4 2574.16,2695.41 2573.03,2697.37 2571.81,2699.26 2570.51,2701.09 2569.12,2702.86 2567.65,2704.55 2566.1,2706.17 2564.48,2707.72 2562.79,2709.19 2561.02,2710.58 2559.19,2711.89 2557.3,2713.1 2555.34,2714.23 2553.33,2715.26 2551.26,2716.2 2549.15,2717.04 2546.98,2717.78 2544.77,2718.41 2542.52,2718.93 2540.23,2719.34 2537.9,2719.64 2535.54,2719.82 2533.15,2719.88 1786.62,2719.88 1784.23,2719.82 1781.86,2719.64 1779.54,2719.34 1777.24,2718.93 1774.99,2718.41 1772.78,2717.78 1770.62,2717.04 1768.5,2716.2 1766.43,2715.26 1764.42,2714.23 1762.47,2713.1 1760.57,2711.89 1758.74,2710.58 1756.98,2709.19 621.097,1573.31 622.862,1574.7 624.693,1576 626.586,1577.22 628.541,1578.35 630.552,1579.38 632.618,1580.32 634.734,1581.16 636.899,1581.89 639.11,1582.52 641.363,1583.05 643.655,1583.46 645.983,1583.76 648.345,1583.94 650.737,1584 1397.26,1584 1399.66,1583.94 1402.02,1583.76 1404.35,1583.46 1406.64,1583.05 1408.89,1582.52 1411.1,1581.89 1413.27,1581.16 1415.38,1580.32 1417.45,1579.38 1419.46,1578.35 1421.42,1577.22 1423.31,1576 1425.14,1574.7 1426.9,1573.31 1428.6,1571.84 1430.22,1570.29 1431.77,1568.67 1433.24,1566.97 1434.63,1565.21 1435.93,1563.38 1437.15,1561.48 1438.28,1559.53 1439.31,1557.52 1440.25,1555.45 1441.09,1553.34 1441.82,1551.17 1442.45,1548.96 1442.98,1546.71 1443.39,1544.42 1443.69,1542.09 1443.87,1539.73 1443.93,1537.33 "/>
    </g>
    <path id="_466494440" class="fil1" d="M650.737 463.999l608.562 0 184.63 184.631 0 888.703c0,25.6677 -20.9988,46.6666 -46.6654,46.6666l-746.527 0c-25.6666,0 -46.6666,-20.9988 -46.6666,-46.6666l0 -1026.67c0,-25.6677 21,-46.6666 46.6666,-46.6666z"/>
   </g>
  </g>
  <path class="fil2" d="M1024 -0.0011811c565.539,0 1024,458.462 1024,1024 0,565.539 -458.462,1024 -1024,1024 -565.539,0 -1024,-458.462 -1024,-1024 0,-565.539 458.462,-1024 1024,-1024z"/>
  <path class="fil3" d="M650.737 463.999l608.562 0 184.63 184.631 0 888.703c0,25.6677 -20.9988,46.6666 -46.6654,46.6666l-746.527 0c-25.6666,0 -46.6666,-20.9988 -46.6666,-46.6666l0 -1026.67c0,-25.6677 21,-46.6666 46.6666,-46.6666z"/>
  <path class="fil4" d="M1443.93 648.63l-0.77126 0 -137.192 0c-25.6677,0 -46.6666,-21 -46.6666,-46.6666l0 -137.682 0 -0.282284 184.63 184.631z"/>
  <path class="fil4" d="M1238.94 864.08c14.328,0 25.9441,-11.9752 25.9441,-26.7473 0,-14.7721 -11.6162,-26.7473 -25.9441,-26.7473l-429.873 0c-14.328,0 -25.9441,11.9752 -25.9441,26.7473 0,14.7721 11.6162,26.7473 25.9441,26.7473l429.873 0z"/>
  <path class="fil4" d="M1238.94 1050.74c14.328,0 25.9441,-11.9764 25.9441,-26.7473 0,-14.7721 -11.6162,-26.7484 -25.9441,-26.7484l-429.873 0c-14.328,0 -25.9441,11.9764 -25.9441,26.7484 0,14.7709 11.6162,26.7473 25.9441,26.7473l429.873 0z"/>
  <path class="fil4" d="M1238.94 1237.41c14.328,0 25.9441,-11.9764 25.9441,-26.7473 0,-14.7721 -11.6162,-26.7473 -25.9441,-26.7473l-429.873 0c-14.328,0 -25.9441,11.9752 -25.9441,26.7473 0,14.7709 11.6162,26.7473 25.9441,26.7473l429.873 0z"/>
  <path class="fil4" d="M1238.94 1424.07c14.328,0 25.9441,-11.9752 25.9441,-26.7473 0,-14.7709 -11.6162,-26.7461 -25.9441,-26.7461l-429.873 0c-14.328,0 -25.9441,11.9752 -25.9441,26.7461 0,14.7721 11.6162,26.7473 25.9441,26.7473l429.873 0z"/>
 </g>
</svg>
