<svg xmlns="http://www.w3.org/2000/svg" viewBox="0 0 64 64"><defs><style>.cls-1{fill:#5b97c4;}.cls-2{fill:#8cbce7;}.cls-3{fill:#f79341;}.cls-4{fill:#ffb248;}.cls-5{fill:none;stroke:#000;stroke-linecap:round;stroke-linejoin:round;stroke-width:2px;}.cls-6{fill:#2b2b4c;}.cls-7{fill:#8d8d8d;}</style></defs><title>Education Insurance</title><g id="Education_Insurance" data-name="Education Insurance"><path class="cls-1" d="M53,34a1.43,1.43,0,0,1-1,1.35L42,38.81,30.79,42.7a5.31,5.31,0,0,1-3.52,0L16.84,39.09A15,15,0,0,0,36.9,26.71l2.41.94c.08.17.17.33.26.49a11.64,11.64,0,0,0,.92,1.4,12.05,12.05,0,0,0,2.17,2.23A12.43,12.43,0,0,0,47,34a12.21,12.21,0,0,0,3.84-1.85l1.25.49A1.44,1.44,0,0,1,53,34Z"/><path class="cls-2" d="M36.9,26.71A15,15,0,0,1,16.84,39.09L16,38.8,6,35.33a1.43,1.43,0,0,1-.06-2.69l2.63-1L27,24.38a5.4,5.4,0,0,1,4,0Z"/><path class="cls-1" d="M42,38.81V49L29,53,16,49V38.8l11.27,3.9a5.31,5.31,0,0,0,3.52,0Z"/><path class="cls-3" d="M56,13.56v8.58a11.8,11.8,0,0,1-.12,1.69A12.37,12.37,0,0,1,47,34a12.43,12.43,0,0,1-4.34-2.23,12.05,12.05,0,0,1-2.17-2.23,11.64,11.64,0,0,1-.92-1.4c-.09-.16-.18-.32-.26-.49A10.8,10.8,0,0,1,38.63,26a8.86,8.86,0,0,1-.31-1.12A11.81,11.81,0,0,1,38,22.14V13.56l3.5-1,2.5-.71L47,11l1.13.32,6.42,1.83.76.22.2.05Z"/><path class="cls-4" d="M53,12.71v6.43A12.34,12.34,0,0,1,44,31a12.39,12.39,0,0,1-3.77-1.8A12.31,12.31,0,0,1,38,22.14V13.56L47,11Z"/><path class="cls-5" d="M56,22.14V23a2.82,2.82,0,0,1-.12.83A11.8,11.8,0,0,0,56,22.14Z"/><path class="cls-6" d="M29,44a6.21,6.21,0,0,1-2.09-.36L5.64,36.28a2.44,2.44,0,0,1-.1-4.57l10.21-4a1,1,0,0,1,.73,1.86l-10.2,4A.44.44,0,0,0,6,34a.43.43,0,0,0,.3.4l21.3,7.37a4.35,4.35,0,0,0,2.85,0l21.26-7.38A.42.42,0,0,0,52,34a.44.44,0,0,0-.28-.41L51,33.28A13.22,13.22,0,0,1,47.27,35a1,1,0,0,1-.54,0A13.17,13.17,0,0,1,42,32.55a13.61,13.61,0,0,1-3.35-3.93,1.62,1.62,0,0,0-.1-.18l-8-3.13a4.5,4.5,0,0,0-3.25,0l-7.16,2.81a1,1,0,1,1-.73-1.86l7.16-2.81a6.49,6.49,0,0,1,4.71,0l8.34,3.27a1,1,0,0,1,.54.5c.07.15.15.28.22.42a12.11,12.11,0,0,0,.86,1.3A11.33,11.33,0,0,0,47,33a11,11,0,0,0,3.25-1.62,1,1,0,0,1,1-.12l1.25.49a2.43,2.43,0,0,1-.08,4.56L31.12,43.64A6.08,6.08,0,0,1,29,44Z"/><path class="cls-6" d="M29,54a.92.92,0,0,1-.29,0l-13-4A1,1,0,0,1,15,49V38.8a1,1,0,0,1,.42-.81,1,1,0,0,1,.91-.14l11.27,3.9a4.35,4.35,0,0,0,2.85,0l11.22-3.89a1,1,0,0,1,.91.13,1,1,0,0,1,.42.81V49a1,1,0,0,1-.71,1l-4.14,1.27a1,1,0,0,1-.58-1.92L41,48.26v-8l-9.88,3.43a6.31,6.31,0,0,1-4.18,0L17,40.2v8.06L29,52l4.76-1.46a1,1,0,1,1,.58,1.92L29.29,54A.92.92,0,0,1,29,54Z"/><path class="cls-7" d="M46,48a1,1,0,0,1-1-1V37.75L28.72,33A1,1,0,0,1,29.28,31l17,5A1,1,0,0,1,47,37V47A1,1,0,0,1,46,48Z"/><path class="cls-6" d="M46,26a1,1,0,0,1-.71-.29l-2.5-2.5a1,1,0,0,1,1.42-1.42L46,23.59l4.29-4.3a1,1,0,0,1,1.42,1.42l-5,5A1,1,0,0,1,46,26Z"/><path class="cls-6" d="M47,35a.84.84,0,0,1-.27,0A13.17,13.17,0,0,1,42,32.55a13.61,13.61,0,0,1-3.35-3.93c-.1-.18-.2-.36-.28-.54a10.92,10.92,0,0,1-.73-1.78,10.41,10.41,0,0,1-.34-1.21A13,13,0,0,1,37,22.14V13.56a1,1,0,0,1,.73-1l9-2.56a1,1,0,0,1,.54,0l9,2.56a1,1,0,0,1,.73,1V15a1,1,0,0,1-2,0v-.68L47,12l-8,2.27v7.83a11.11,11.11,0,0,0,.29,2.51,7.85,7.85,0,0,0,.28,1,11.2,11.2,0,0,0,.63,1.53c.08.17.16.3.23.44a12.11,12.11,0,0,0,.86,1.3A11.33,11.33,0,0,0,47,33a11,11,0,0,0,3.25-1.62,11.36,11.36,0,0,0,4.64-7.65A11.2,11.2,0,0,0,55,22.14V19a1,1,0,0,1,2,0v3.14A12.22,12.22,0,0,1,56.87,24a13.35,13.35,0,0,1-5.45,9,13,13,0,0,1-4.15,2A.84.84,0,0,1,47,35Z"/></g></svg>